<svg id="Capa_1" enable-background="new 0 0 511.953 511.953" height="512" viewBox="0 0 511.953 511.953" width="512" xmlns="http://www.w3.org/2000/svg"><g><g><path d="m478.908 273.836c-6.176-6.176-13.883-9.9-21.91-11.193 5.639-14.388 2.663-31.401-8.944-43.008-8.115-8.115-19.455-12.366-30.901-11.647.7-11.093-3.169-22.422-11.627-30.881-5.141-5.141-11.346-8.579-17.911-10.336l37.397-37.331c8.68-8.68 11.152-22.216 6.05-33.402l24.089-24.089c3.838-3.839 3.839-10.303 0-14.143l-10.898-10.898 29.837-29.837c3.905-3.905 3.905-10.237 0-14.143-3.905-3.905-10.237-3.905-14.143 0l-29.837 29.837-11.441-11.441c-3.839-3.839-10.303-3.839-14.142 0l-23.985 23.986c-11.054-5.229-24.684-3.284-33.814 5.846l-44.148 44.148c-4.394-18.555-21.088-32.406-40.966-32.406-23.218 0-42.107 18.889-42.107 42.107 0 19.879 13.851 36.573 32.406 40.966l-15.319 15.319-1.767-1.744c-10.875-10.723-28.499-10.667-39.291.125l-20.632 20.632c-3.889 3.889-3.907 10.189-.041 14.101l44.707 45.234-22.698 22.697c-15.319-15.42-32.604-32.784-32.77-32.95-13.262-13.206-31.245-20.238-50.625-19.76-19.038.454-36.842 8.02-50.131 21.303-1.875 1.875-2.93 4.419-2.93 7.071s1.053 5.196 2.928 7.072l49.08 49.09c.044.044.088.087.133.13 7.2 6.938 11.499 17.376 11.499 27.919v17.95c0 10.836-4.505 21.324-12.368 28.78l-.176.167c-4.003 3.804-4.166 10.134-.361 14.138s10.134 4.166 14.138.361l.169-.161c11.82-11.21 18.599-26.987 18.599-43.286v-17.95c0-15.833-6.559-31.62-17.55-42.252l-41.264-41.272c20.06-13.508 47.788-12.016 64.719 4.842.283.284 48.102 48.399 50.955 51.285 14.822 14.988 40.989 16.49 56.412 1.359l9.2-9.02 13.807 13.966c8.288 8.376 19.643 12.967 31.462 12.223-.808 12.641 4.516 25.069 14.201 33.225 14.645 12.369 36.791 12.4 51.483.09 3.633 13.978 14.901 25.166 28.897 28.689l-34.505 35.35c-8.383 8.659-20.1 13.625-32.146 13.625h-12.75c-17.283 0-33.531 6.729-45.751 18.949l-51.66 51.66c-3.906 3.905-3.906 10.237 0 14.143 3.84 3.841 10.301 3.842 14.142 0l51.661-51.661c8.442-8.441 19.667-13.091 31.608-13.091h12.75c17.432 0 34.386-7.186 46.486-19.685l92.695-94.129c15.622-15.622 15.622-41.045-.001-56.669zm-239.401-168.831c0-12.19 9.917-22.107 22.107-22.107s22.107 9.917 22.107 22.107-9.917 22.107-22.107 22.107-22.107-9.917-22.107-22.107zm180.211 122.893c5.361 0 10.402 2.088 14.193 5.879 7.728 7.728 7.729 20.655 0 28.385l-67.936 67.936c-7.691 7.691-20.691 7.694-28.378.001-7.818-7.819-7.638-20.637.053-28.447l67.875-67.875c3.792-3.791 8.832-5.879 14.193-5.879zm-28.335-36.648c7.826 7.826 7.826 20.559 0 28.385l-67.935 67.935c-7.8 7.803-21.622 7.479-29.065-.752-6.46-7.602-6.906-18.535-.483-26.347.37-.439 70.088-70.116 70.088-70.116 7.875-6.897 19.889-6.612 27.395.895zm20.215-148.711 22.34 22.339-15.686 15.686-22.339-22.339zm-50.728 22.76c3.812-3.812 10.015-3.811 13.825 0l36.173 36.174c3.752 3.751 3.761 10.065.006 13.819l-22.004 21.965-18.035-18.034c-3.905-3.905-10.237-3.905-14.142 0s-3.905 10.237 0 14.142l18.021 18.021s-24.86 24.768-25.184 25.077l-17.968-17.968c-3.905-3.904-10.237-3.904-14.143 0-3.905 3.905-3.905 10.237 0 14.143l17.951 17.951-34.333 34.333-50.214-49.58zm-151.191 108.514c3.047-3.047 8.029-3.06 11.101-.031l66.117 65.281s-7.156 7.211-7.628 7.744c-.071.081-.139.163-.21.244-4.087 4.682-6.9 10.092-8.442 15.782l-74.539-75.418zm33.816 107.91c-8.216 7.249-20.635 6.836-28.356-.973-1.217-1.232-2.629-2.657-4.178-4.221l22.668-22.668 18.841 19.063zm221.27 34.641-34.345 34.344c-7.709 7.709-20.689 7.697-28.385 0-7.698-7.698-7.673-20.712 0-28.385l34.344-34.344c7.716-7.717 20.668-7.719 28.385 0 7.827 7.825 7.827 20.559.001 28.385z"/><path d="m48.065 429.27-23.708 23.05c-3.96 3.85-4.049 10.181-.199 14.141 3.788 3.896 10.246 3.986 14.141.199l23.709-23.05c3.96-3.85 4.049-10.181.199-14.141-3.85-3.959-10.181-4.049-14.142-.199z"/><path d="m96.116 402.42c-3.349-8.039-15.116-8.076-18.47 0-1.631 3.928-.528 8.62 2.7 11.397 3.235 2.783 8.005 3.191 11.668 1.003 4.191-2.504 5.982-7.886 4.102-12.4z"/></g></g></svg>