<svg height="496pt" viewBox="0 0 496 496" width="496pt" xmlns="http://www.w3.org/2000/svg"><path d="m296 168c0 4.417969-3.582031 8-8 8s-8-3.582031-8-8 3.582031-8 8-8 8 3.582031 8 8zm0 0"/><path d="m376 168c0 4.417969-3.582031 8-8 8s-8-3.582031-8-8 3.582031-8 8-8 8 3.582031 8 8zm0 0"/><path d="m328 232c-8.824219 0-16-7.175781-16-16h-16c0 17.648438 14.351562 32 32 32s32-14.351562 32-32h-16c0 8.824219-7.175781 16-16 16zm0 0"/><path d="m457.710938 317.480469-81.710938-27.25v-2.230469h29.574219c8.410156 0 16.546875-2.464844 23.53125-7.128906 11.832031-7.878906 18.894531-21.070313 18.894531-35.296875v-125.574219c0-66.167969-53.832031-120-120-120s-120 53.832031-120 120v125.574219c0 14.21875 7.0625 27.417969 18.886719 35.296875 6.984375 4.664062 15.128906 7.128906 23.539062 7.128906h29.574219v2.230469l-77.519531 25.839843-32.640625-32.636718-20.535156 12.183594c-.394532-.167969-.785157-.328126-1.167969-.488282l-5.929688-23.128906h-60.421875l-5.914062 23.144531c-.390625.160157-.78125.320313-1.167969.488281l-20.535156-12.191406-42.726563 42.726563 12.183594 20.535156c-.167969.394531-.328125.785156-.488281 1.167969l-23.136719 5.921875v60.421875l23.144531 5.914062c.160157.390625.320313.78125.488281 1.167969l-12.191406 20.535156 42.726563 42.726563 20.535156-12.183594c.394531.167969.785156.328125 1.167969.488281l5.921875 23.136719h60.421875l5.914062-23.144531c.390625-.160157.78125-.320313 1.167969-.488281l20.535156 12.183593 20.566407-20.550781h305.601562v-93.40625c0-24.136719-15.390625-45.488281-38.289062-53.113281zm-59.847657-3.097657-24.503906 49.007813-33.503906-27.925781 30.3125-30.3125zm-69.886719-42.382812c-39.703124 0-72-32.296875-72-72v-63.71875c8.015626 9.757812 20.121094 15.71875 33.296876 15.71875h14.703124v-14.769531c14.039063 9.601562 30.625 14.769531 48 14.769531h8v-14.769531c11.863282 8.121093 25.550782 13.066406 40 14.402343l.023438 55.03125c-.023438 34.808594-33.679688 65.335938-72.023438 65.335938zm-31.976562 9.894531c9.929688 3.890625 20.6875 6.105469 31.976562 6.105469 11.167969 0 21.984376-2.214844 32.023438-6.089844v10.777344l-32 32-32-32zm124.230469-14.335937c-4.351563 2.914062-9.414063 4.441406-14.65625 4.441406h-26.742188c17.3125-11.800781 30.246094-29.105469 35.0625-48.601562 6.746094-1.007813 12.898438-3.664063 18.105469-7.605469v29.78125c0 8.867187-4.398438 17.082031-11.769531 21.984375zm-4.246094-106.085938c9.304687 3.304688 16.015625 12.101563 16.015625 22.527344 0 10.414062-6.710938 19.214844-16 22.527344zm-87.984375-145.472656c57.34375 0 104 46.65625 104 104v32.207031c-4.679688-3.542969-10.0625-6.183593-16.023438-7.398437v-8.808594h-8c-18.496093 0-35.886718-7.199219-48.96875-20.28125l-15.03125-15.03125v34.855469c-15.472656-1.765625-29.800781-8.65625-40.96875-19.832031l-15.03125-15.03125v35.28125c-11.144531-.527344-20.847656-7.832032-24.417968-18.496094l-1.816406-5.464844h-21.765626v32.808594c-5.9375 1.214844-11.3125 3.855468-15.976562 7.390625v-32.199219c0-57.34375 46.65625-104 104-104zm-87.6875 190.625c-9.449219-3.226562-16.3125-12.097656-16.3125-22.625 0-10.40625 6.695312-19.199219 15.976562-22.519531v38.519531c0 2.230469.167969 4.433594.335938 6.625zm-4.542969 60.933594c-7.371093-4.902344-11.769531-13.117188-11.769531-21.984375v-29.78125c5.503906 4.167969 12.070312 6.863281 19.265625 7.726562 5.527344 19.863281 17.8125 36.914063 34.269531 48.480469h-27.121094c-5.230468 0-10.292968-1.527344-14.644531-4.441406zm50.070313 37.59375 30.3125 30.3125-33.503906 27.925781-24.503907-49.007813zm-118.535156 159.304687-17.097657-10.144531-3.847656 1.839844c-2.480469 1.175781-5.015625 2.238281-7.625 3.160156l-4.03125 1.429688-4.910156 19.257812h-35.578125l-4.910156-19.257812-4.03125-1.429688c-2.609376-.914062-5.152344-1.976562-7.625-3.160156l-3.847657-1.839844-17.097656 10.144531-25.152344-25.152343 10.144531-17.097657-1.839843-3.847656c-1.175781-2.480469-2.238281-5.015625-3.160157-7.625l-1.429687-4.03125-19.265625-4.910156v-35.578125l19.257812-4.910156 1.429688-4.03125c.914062-2.609376 1.976562-5.152344 3.160156-7.625l1.839844-3.847657-10.144531-17.097656 25.152343-25.152344 17.097657 10.144531 3.847656-1.839843c2.480469-1.175781 5.015625-2.238281 7.625-3.160157l4.03125-1.429687 4.910156-19.265625h35.578125l4.910156 19.257812 4.03125 1.429688c2.609376.914062 5.152344 1.976562 7.625 3.160156l3.847657 1.839844 17.097656-10.144531 25.152344 25.152343-10.144531 17.097657 1.839843 3.847656c1.175781 2.480469 2.238281 5.015625 3.160157 7.625l1.429687 4.03125 19.265625 4.910156v35.578125l-19.257812 4.910156-1.429688 4.03125c-.914062 2.609376-1.976562 5.152344-3.160156 7.625l-1.839844 3.847657 10.144531 17.097656zm39.09375-16.457031 6.167968-6.167969-12.183594-20.535156c.167969-.394531.328126-.785156.488282-1.167969l23.128906-5.921875v-60.421875l-23.144531-5.914062c-.160157-.390625-.320313-.78125-.488281-1.167969l9.664062-16.277344 32.769531-10.921875 34.550781 69.113282 26.648438-22.210938v81.59375zm113.601562 0v-94.921875l8-6.664063 8 6.664063v94.921875zm160 0h-48v-72h-16v72h-64v-81.59375l26.640625 22.203125 34.550781-69.113281 39.457032 13.152344c16.359374 5.457031 27.351562 20.703124 27.351562 37.945312zm0 0"/><path d="m112 320c-35.289062 0-64 28.710938-64 64s28.710938 64 64 64 64-28.710938 64-64-28.710938-64-64-64zm0 112c-26.472656 0-48-21.527344-48-48s21.527344-48 48-48 48 21.527344 48 48-21.527344 48-48 48zm0 0"/><path d="m112 352c-17.648438 0-32 14.351562-32 32s14.351562 32 32 32 32-14.351562 32-32-14.351562-32-32-32zm0 48c-8.824219 0-16-7.175781-16-16s7.175781-16 16-16 16 7.175781 16 16-7.175781 16-16 16zm0 0"/><path d="m368 400h32v16h-32zm0 0"/><path d="m192 0h-139.3125l-52.6875 52.6875v203.3125h192zm-144 27.3125v20.6875h-20.6875zm128 212.6875h-160v-176h48v-48h112zm0 0"/><path d="m80 32h80v16h-80zm0 0"/><path d="m80 64h80v16h-80zm0 0"/><path d="m32 96h128v16h-128zm0 0"/><path d="m32 224h128v-96h-128zm16-80h96v64h-96zm0 0"/></svg>